<svg xmlns="http://www.w3.org/2000/svg" viewBox="0 0 100 100">
  <style>
    .icon-bg { fill: #0891b2; }
    .mountains { fill: #22c55e; }
    .sun { fill: #fbbf24; }
    .water { fill: #0ea5e9; }
    .sand { fill: #fcd34d; }
    @media (prefers-color-scheme: dark) {
      .icon-bg { fill: #0ea5e9; }
      .mountains { fill: #4ade80; }
      .sun { fill: #fcd34d; }
      .water { fill: #38bdf8; }
      .sand { fill: #fde68a; }
    }
  </style>
  <path class="icon-bg" d="M50,0 L93.3,25 V75 L50,100 L6.7,75 V25 L50,0z"/>
  <path class="mountains" d="M25,65 L40,40 L50,55 L60,35 L75,65 Z"/>
  <path class="sun" d="M25,35 A5,5 0 0,1 35,35 A5,5 0 0,1 25,35"/>
  <path class="water" d="M20,70 Q35,60 50,70 Q65,80 80,70 L80,80 L20,80 Z"/>
  <path class="sand" d="M20,80 L80,80 L80,85 L20,85 Z"/>
</svg>

